<?xml version="1.0" encoding="utf-8"?>
<!-- Generator: Adobe Illustrator 23.0.3, SVG Export Plug-In . SVG Version: 6.00 Build 0)  -->
<svg version="1.1" id="Layer_1" xmlns="http://www.w3.org/2000/svg" xmlns:xlink="http://www.w3.org/1999/xlink" x="0px" y="0px"
	 viewBox="0 0 299.47 299.47" style="enable-background:new 0 0 299.47 299.47;" xml:space="preserve">
<style type="text/css">
	.st0{fill:#2AABE2;stroke:#F31524;stroke-width:4;stroke-miterlimit:10;}
	.st1{fill:#FFFFFF;}
	.st2{fill:#1C99C9;}
	.st3{fill:#8ABFDE;}
</style>
<path class="st0" d="M149.75,48.26c-34.03-0.03-61.7,27.64-61.69,61.7c0.01,34.05,27.52,61.59,61.64,61.69
	c33.98,0.11,61.65-27.55,61.72-61.67C211.47,75.96,183.83,48.29,149.75,48.26z"/>
<path class="st1" d="M130.37,109.8c2.6-1.66,4.36-3.87,4.69-7.08c0.36-3.45-0.44-6.42-3.31-8.6c-1.66-1.26-3.47-2.27-5.6-2.29
	c-6.41-0.04-12.82,0-19.22-0.01c-0.47,0-0.6,0.18-0.68,0.57c-0.27,1.36-0.56,2.72-0.84,4.08c-2.13,10.33-4.27,20.67-6.42,31
	c-0.12,0.56,0,0.65,0.53,0.64c4-0.01,8-0.01,12-0.01c3.84,0,7.67,0.01,11.51,0c4.34,0,8.39-2.86,9.65-6.99
	c1.16-3.86,0.27-7.33-2.43-10.32C129.84,110.34,129.82,110.15,130.37,109.8z M123.3,116.78c-0.71,1.89-2.1,3.19-4.29,3.13
	c-2.34-0.06-4.69-0.02-7.03,0c-0.45,0-0.56-0.09-0.45-0.57c0.42-1.7,0.79-3.42,1.14-5.15c0.08-0.43,0.27-0.52,0.66-0.51
	c1.35,0.02,2.69,0.01,4.04,0.01c1.24,0,2.49,0.07,3.73-0.02C122.76,113.56,123.89,115.19,123.3,116.78z M124.67,103.91
	c-0.54,1.52-1.91,2.52-3.56,2.54c-2.15,0.03-4.31,0.01-6.46,0.01c-0.33,0.01-0.5-0.03-0.41-0.44c0.36-1.68,0.71-3.36,1.02-5.04
	c0.08-0.44,0.27-0.52,0.66-0.51c1.12,0.02,2.24,0,3.36,0h2.98C124.3,100.48,125.36,101.99,124.67,103.91z"/>
<path class="st1" d="M172.89,101.71c-0.75-6.01-6.09-9.79-11.03-9.83c-3.03-0.03-6.06-0.01-7.86-0.05c-4.46,0-7.69,0.01-10.92-0.01
	c-0.5-0.01-0.67,0.15-0.77,0.62c-2.41,11.68-4.83,23.34-7.27,35.01c-0.12,0.55,0,0.67,0.54,0.66c3.42-0.02,6.84-0.01,10.26,0
	c0.45,0.01,0.64-0.11,0.73-0.58c0.69-3.34,1.42-6.68,2.12-10.02c0.1-0.46,0.27-0.62,0.77-0.63c3.5-0.03,7,0.1,10.5-0.17
	c3.95-0.31,7.23-1.85,9.79-4.86C172.23,108.92,173.36,105.53,172.89,101.71z M156.66,108.08c-0.89-0.03-1.78-0.01-2.68-0.01v0.01
	c-0.93,0-1.86-0.02-2.79,0c-0.37,0.01-0.52-0.04-0.42-0.47c0.51-2.32,1.01-4.65,1.49-6.98c0.06-0.32,0.2-0.39,0.49-0.39
	c2.05,0.01,4.11-0.02,6.16,0.02c1.55,0.03,2.62,1.5,2.65,3.17C161.6,105.98,158.62,108.14,156.66,108.08z"/>
<path class="st1" d="M198.58,127.52c-0.09,0.46-0.26,0.6-0.73,0.59c-4.25-0.02-8.5-0.01-12.75-0.01c-4.23,0-8.46-0.01-12.69,0.01
	c-0.6,0-0.68-0.17-0.57-0.71c2.45-11.64,4.89-23.28,7.31-34.93c0.1-0.49,0.27-0.67,0.81-0.66c3.38,0.03,6.76,0.02,10.14,0.01
	c0.49,0,0.63,0.07,0.51,0.61c-1.75,8.13-3.47,16.27-5.19,24.4c-0.18,0.86-0.19,0.86,0.67,0.86c4.62,0,9.25,0.01,13.87-0.01
	c0.54,0,0.65,0.12,0.53,0.66C199.82,121.4,199.19,124.46,198.58,127.52z"/>
<path class="st2" d="M256.47,299.47H43c-23.71,0-43-19.29-43-43V43C0,19.29,19.29,0,43,0h213.47c23.71,0,43,19.29,43,43v213.47
	C299.47,280.18,280.18,299.47,256.47,299.47z M43,16c-14.89,0-27,12.11-27,27v213.47c0,14.89,12.11,27,27,27h213.47
	c14.89,0,27-12.11,27-27V43c0-14.89-12.11-27-27-27H43z"/>
<path class="st2" d="M67.47,221.45c-2.34-1.87-5.82-2.81-10.71-2.81c-4.84,0-8.27,0.31-10.71,0.73v34.58h7.85v-12.58
	c0.73,0.16,1.66,0.21,2.7,0.21c4.68,0,8.68-1.2,11.39-3.69c2.13-1.92,3.22-4.89,3.22-8.32C71.21,226.13,69.76,223.22,67.47,221.45z
	 M56.55,235.49c-1.2,0-1.98-0.05-2.65-0.21v-10.35c0.57-0.16,1.66-0.26,3.22-0.26c4,0,6.24,1.92,6.24,5.15
	C63.36,233.36,60.76,235.49,56.55,235.49z"/>
<path class="st2" d="M95.24,237.52v-0.16c3.02-1.09,6.19-4.16,6.19-8.58c0-3.22-1.14-5.72-3.28-7.38c-2.5-1.98-6.14-2.76-11.34-2.76
	c-4.26,0-8.01,0.31-10.56,0.73v34.58h7.85v-13.78h2.34c3.28,0.05,4.78,1.2,5.77,5.62c0.99,4.32,1.87,7.12,2.39,8.16h8.11
	c-0.68-1.35-1.72-5.93-2.81-9.93C99.03,240.8,97.68,238.51,95.24,237.52z M87.23,234.45h-3.12v-9.62c0.57-0.16,1.66-0.26,3.59-0.26
	c3.64,0,5.82,1.66,5.82,4.84C93.52,232.48,91.18,234.45,87.23,234.45z"/>
<path class="st2" d="M122.33,218.28c-10.3,0-17.06,7.85-17.06,18.36c0,10.04,6.14,17.89,16.48,17.89c10.3,0,17.21-6.92,17.21-18.46
	C138.97,226.34,133.09,218.28,122.33,218.28z M122.17,248.23c-5.3,0-8.53-4.84-8.53-11.75c0-6.81,3.12-11.91,8.53-11.91
	c5.46,0,8.42,5.41,8.42,11.75C130.6,243.14,127.53,248.23,122.17,248.23z"/>
<path class="st2" d="M169.81,218.91l-3.69,11.65c-1.2,3.9-2.39,8.53-3.33,12.58h-0.21c-0.78-4.11-1.82-8.48-2.96-12.53l-3.43-11.7
	h-10.56l-2.24,35.05h7.33l0.68-13.31c0.21-4.37,0.42-9.78,0.57-14.51h0.1c0.88,4.58,2.03,9.57,3.17,13.73l3.74,13.52h6.19
	l4.26-13.68c1.35-4.11,2.81-9.1,3.95-13.57h0.1c0,5.1,0.16,10.19,0.31,14.41l0.57,13.42h7.7l-1.87-35.05H169.81z"/>
<rect x="188.21" y="218.91" class="st2" width="7.9" height="35.05"/>
<path class="st2" d="M216.6,233.15c-4.58-1.72-6.5-2.7-6.5-4.94c0-1.77,1.66-3.38,5.1-3.38c3.38,0,5.93,0.99,7.28,1.66l1.77-6.34
	c-2.08-0.99-4.94-1.77-8.94-1.77c-8.22,0-13.26,4.52-13.26,10.5c0,5.1,3.85,8.32,9.67,10.4c4.21,1.46,5.88,2.7,5.88,4.89
	c0,2.29-1.92,3.8-5.56,3.8c-3.38,0-6.71-1.09-8.79-2.18l-1.61,6.5c1.98,1.09,5.93,2.18,9.93,2.18c9.62,0,14.09-4.99,14.09-10.87
	C225.65,238.67,222.79,235.44,216.6,233.15z"/>
<polygon class="st2" points="239.02,247.45 239.02,239.13 251.91,239.13 251.91,232.69 239.02,232.69 239.02,225.41 252.69,225.41 
	252.69,218.91 231.11,218.91 231.11,253.95 253.42,253.95 253.42,247.45 "/>
<circle class="st3" cx="191.61" cy="211.19" r="4.59"/>
</svg>
