<svg xmlns="http://www.w3.org/2000/svg" xmlns:xlink="http://www.w3.org/1999/xlink" width="54" height="54" viewBox="0 0 54 54">
  <defs>
    <linearGradient id="linear-gradient" y1="0.5" x2="1" y2="0.5" gradientUnits="objectBoundingBox">
      <stop offset="0" stop-color="#ffe35f"/>
      <stop offset="0" stop-color="#de9f17"/>
      <stop offset="0.32" stop-color="#cf9a15"/>
      <stop offset="0.68" stop-color="#ffd44e"/>
      <stop offset="1" stop-color="#ffcf45"/>
    </linearGradient>
    <clipPath id="clip-path">
      <rect id="Rectangle_308" data-name="Rectangle 308" width="54" height="54" rx="4" transform="translate(-83.934 66.658)" fill="url(#linear-gradient)"/>
    </clipPath>
  </defs>
  <g id="meet-and-greet" transform="translate(83.934 -66.658)">
    <g id="Mask_Group_8" data-name="Mask Group 8" clip-path="url(#clip-path)">
      <g id="hand-shake" transform="translate(-83.934 66.658)">
        <g id="Group_987" data-name="Group 987">
          <g id="Group_986" data-name="Group 986">
            <path id="Path_1398" data-name="Path 1398" d="M13.05,13.725c-1.8-1.8-9.45-2.25-11.925-2.475a.827.827,0,0,0-.675.225,1.706,1.706,0,0,0-.45.9v20.25A1.063,1.063,0,0,0,1.125,33.75h6.75A1.237,1.237,0,0,0,9,33.075c0-.675,4.05-12.6,4.5-18.45A.9.9,0,0,0,13.05,13.725Z" fill="url(#linear-gradient)"/>
          </g>
        </g>
        <g id="Group_989" data-name="Group 989">
          <g id="Group_988" data-name="Group 988">
            <path id="Path_1399" data-name="Path 1399" d="M37.125,19.125c-2.25-.675-4.275-1.575-6.075-2.25-4.05-1.8-5.85-.9-9.45,2.7C20.025,21.15,18.9,23.4,19.125,24.3c0,.225,0,.225.45.45,1.125.45,2.7.675,4.275-1.8a1.169,1.169,0,0,1,.9-.45,4.17,4.17,0,0,0,1.575-.45,10.97,10.97,0,0,1,1.575-.675h.45c.225,0,.675.225.9.225,1.125,1.125,3.15,2.7,5.175,4.5A51.535,51.535,0,0,1,42.3,33.3h.225C40.95,28.8,38.25,21.15,37.125,19.125Z" fill="url(#linear-gradient)"/>
          </g>
        </g>
        <g id="Group_991" data-name="Group 991">
          <g id="Group_990" data-name="Group 990">
            <path id="Path_1400" data-name="Path 1400" d="M52.875,13.5a39.457,39.457,0,0,0-13.95,2.25l-.675.675a1.353,1.353,0,0,0,.225.9C39.825,19.575,44.325,31.95,45,35.1a1.5,1.5,0,0,0,1.125.9h6.75A1.063,1.063,0,0,0,54,34.875V14.625A1.063,1.063,0,0,0,52.875,13.5Z" fill="url(#linear-gradient)"/>
          </g>
        </g>
        <g id="Group_993" data-name="Group 993">
          <g id="Group_992" data-name="Group 992">
            <path id="Path_1401" data-name="Path 1401" d="M40.725,35.55c-.9-2.025-4.725-4.95-8.1-7.65-1.8-1.575-3.6-2.925-4.95-4.05-.225.225-.675.225-.675.45a4.239,4.239,0,0,1-1.8.45C23.4,27,21.15,27.9,18.675,27a2.66,2.66,0,0,1-2.025-2.025c-.45-2.25,1.575-5.4,3.15-6.975H15.3a114.717,114.717,0,0,1-3.6,13.5,25.435,25.435,0,0,0,2.475,2.475c4.275,3.6,9.225,7.2,10.125,7.875a6.4,6.4,0,0,0,2.7.9h.675l-3.6-3.6a1.114,1.114,0,0,1,1.575-1.575l4.5,4.5c.45.45.9.225,1.35.225.675-.225.9-.675,1.125-1.35L27.45,35.775A1.114,1.114,0,1,1,29.025,34.2l5.625,5.625a2.406,2.406,0,0,0,1.8,0c.225-.225.675-.45.9-.9l-6.3-6.3a1.114,1.114,0,1,1,1.575-1.575l6.525,6.525a1.488,1.488,0,0,0,1.35-.225A1.528,1.528,0,0,0,40.725,35.55Z" fill="url(#linear-gradient)"/>
          </g>
        </g>
      </g>
    </g>
  </g>
</svg>